<mxfile host="app.diagrams.net" modified="2021-04-16T03:26:25.483Z" agent="5.0 (Windows NT 10.0; Win64; x64) AppleWebKit/537.36 (KHTML, like Gecko) Chrome/89.0.4389.128 Safari/537.36" etag="6Oyf_OB6wT_MwtPPNB7H" version="14.6.1" type="github">
  <diagram id="BDovwW1Q0JBoSyO907lS" name="第 1 页">
    <mxGraphModel dx="868" dy="394" grid="1" gridSize="10" guides="1" tooltips="1" connect="1" arrows="1" fold="1" page="1" pageScale="1" pageWidth="827" pageHeight="1169" math="0" shadow="0">
      <root>
        <mxCell id="0" />
        <mxCell id="1" parent="0" />
        <mxCell id="V6lHvnkKD9r7ff4-EVEF-17" value="&lt;font&gt;&lt;span style=&quot;font-size: 14px&quot;&gt;udc core&lt;/span&gt;&lt;br&gt;&lt;/font&gt;" style="rounded=1;whiteSpace=wrap;html=1;fillColor=#f8cecc;strokeColor=#b85450;" vertex="1" parent="1">
          <mxGeometry x="160" y="840" width="600" height="40" as="geometry" />
        </mxCell>
        <mxCell id="V6lHvnkKD9r7ff4-EVEF-10" value="" style="edgeStyle=orthogonalEdgeStyle;rounded=0;orthogonalLoop=1;jettySize=auto;html=1;fontSize=14;" edge="1" parent="1" source="V6lHvnkKD9r7ff4-EVEF-1" target="V6lHvnkKD9r7ff4-EVEF-9">
          <mxGeometry relative="1" as="geometry" />
        </mxCell>
        <mxCell id="V6lHvnkKD9r7ff4-EVEF-1" value="&lt;font&gt;&lt;span style=&quot;font-size: 14px&quot;&gt;module_usb_composite_driver&lt;/span&gt;&lt;font style=&quot;font-size: 14px&quot;&gt;&lt;br&gt;module_driver&lt;/font&gt;&lt;br&gt;&lt;/font&gt;" style="rounded=1;whiteSpace=wrap;html=1;fillColor=#d5e8d4;strokeColor=#82b366;" vertex="1" parent="1">
          <mxGeometry x="160" y="360" width="200" height="40" as="geometry" />
        </mxCell>
        <mxCell id="V6lHvnkKD9r7ff4-EVEF-14" style="edgeStyle=orthogonalEdgeStyle;rounded=0;orthogonalLoop=1;jettySize=auto;html=1;exitX=0.5;exitY=1;exitDx=0;exitDy=0;entryX=0.5;entryY=0;entryDx=0;entryDy=0;fontSize=14;" edge="1" parent="1" source="V6lHvnkKD9r7ff4-EVEF-6" target="V6lHvnkKD9r7ff4-EVEF-1">
          <mxGeometry relative="1" as="geometry" />
        </mxCell>
        <mxCell id="V6lHvnkKD9r7ff4-EVEF-6" value="&lt;font color=&quot;#00cc00&quot;&gt;struct usb_composite_driver&lt;/font&gt;" style="text;html=1;strokeColor=none;fillColor=none;align=center;verticalAlign=middle;whiteSpace=wrap;rounded=0;fontSize=14;" vertex="1" parent="1">
          <mxGeometry x="180" y="300" width="160" height="40" as="geometry" />
        </mxCell>
        <mxCell id="V6lHvnkKD9r7ff4-EVEF-9" value="&lt;font&gt;&lt;span style=&quot;font-size: 14px&quot;&gt;usb_composite_probe&lt;/span&gt;&lt;br&gt;&lt;/font&gt;" style="rounded=1;whiteSpace=wrap;html=1;fillColor=#d5e8d4;strokeColor=#82b366;" vertex="1" parent="1">
          <mxGeometry x="160" y="480" width="200" height="40" as="geometry" />
        </mxCell>
        <mxCell id="V6lHvnkKD9r7ff4-EVEF-11" value="&lt;font color=&quot;#00cc00&quot;&gt;struct&amp;nbsp;&lt;br&gt;usb_gadget_driver&lt;/font&gt;" style="text;html=1;strokeColor=none;fillColor=none;align=center;verticalAlign=middle;whiteSpace=wrap;rounded=0;fontSize=14;" vertex="1" parent="1">
          <mxGeometry x="180" y="570" width="160" height="40" as="geometry" />
        </mxCell>
        <mxCell id="V6lHvnkKD9r7ff4-EVEF-12" value="&lt;font&gt;&lt;span style=&quot;font-size: 14px&quot;&gt;usb_gadget_probe_driver&lt;/span&gt;&lt;br&gt;&lt;/font&gt;" style="rounded=1;whiteSpace=wrap;html=1;fillColor=#d5e8d4;strokeColor=#82b366;" vertex="1" parent="1">
          <mxGeometry x="160" y="640" width="200" height="40" as="geometry" />
        </mxCell>
        <mxCell id="V6lHvnkKD9r7ff4-EVEF-13" value="&lt;font color=&quot;#ff0516&quot;&gt;将udc 设备主动与udc设备控制器关联起来&lt;/font&gt;" style="text;html=1;strokeColor=none;fillColor=none;align=center;verticalAlign=middle;whiteSpace=wrap;rounded=0;fontSize=14;" vertex="1" parent="1">
          <mxGeometry x="134" y="680" width="280" height="20" as="geometry" />
        </mxCell>
        <mxCell id="V6lHvnkKD9r7ff4-EVEF-15" value="&lt;font&gt;&lt;span style=&quot;font-size: 14px&quot;&gt;list_for_each_entry&lt;/span&gt;&lt;br&gt;&lt;/font&gt;" style="rounded=1;whiteSpace=wrap;html=1;fillColor=#d5e8d4;strokeColor=#82b366;" vertex="1" parent="1">
          <mxGeometry x="160" y="760" width="200" height="40" as="geometry" />
        </mxCell>
        <mxCell id="V6lHvnkKD9r7ff4-EVEF-20" style="edgeStyle=orthogonalEdgeStyle;rounded=0;orthogonalLoop=1;jettySize=auto;html=1;exitX=1;exitY=0.5;exitDx=0;exitDy=0;entryX=0;entryY=0.5;entryDx=0;entryDy=0;fontSize=14;" edge="1" parent="1" source="V6lHvnkKD9r7ff4-EVEF-16" target="V6lHvnkKD9r7ff4-EVEF-18">
          <mxGeometry relative="1" as="geometry">
            <Array as="points">
              <mxPoint x="400" y="940" />
              <mxPoint x="400" y="780" />
            </Array>
          </mxGeometry>
        </mxCell>
        <mxCell id="V6lHvnkKD9r7ff4-EVEF-34" style="edgeStyle=orthogonalEdgeStyle;rounded=0;orthogonalLoop=1;jettySize=auto;html=1;exitX=0.5;exitY=1;exitDx=0;exitDy=0;entryX=0;entryY=0.25;entryDx=0;entryDy=0;fontSize=14;dashed=1;" edge="1" parent="1" source="V6lHvnkKD9r7ff4-EVEF-16" target="V6lHvnkKD9r7ff4-EVEF-24">
          <mxGeometry relative="1" as="geometry" />
        </mxCell>
        <mxCell id="V6lHvnkKD9r7ff4-EVEF-35" style="edgeStyle=orthogonalEdgeStyle;rounded=0;orthogonalLoop=1;jettySize=auto;html=1;exitX=0.5;exitY=1;exitDx=0;exitDy=0;entryX=0;entryY=0.25;entryDx=0;entryDy=0;dashed=1;fontSize=14;" edge="1" parent="1" source="V6lHvnkKD9r7ff4-EVEF-16" target="V6lHvnkKD9r7ff4-EVEF-29">
          <mxGeometry relative="1" as="geometry" />
        </mxCell>
        <mxCell id="V6lHvnkKD9r7ff4-EVEF-16" value="&lt;font&gt;&lt;span style=&quot;font-size: 14px&quot;&gt;udc_list&lt;/span&gt;&lt;br&gt;&lt;/font&gt;" style="rounded=1;whiteSpace=wrap;html=1;fillColor=#e1d5e7;strokeColor=#9673a6;" vertex="1" parent="1">
          <mxGeometry x="220" y="920" width="80" height="40" as="geometry" />
        </mxCell>
        <mxCell id="V6lHvnkKD9r7ff4-EVEF-18" value="&lt;font&gt;&lt;span style=&quot;font-size: 14px&quot;&gt;udc_bind_to_driver&lt;/span&gt;&lt;br&gt;&lt;/font&gt;" style="rounded=1;whiteSpace=wrap;html=1;fillColor=#d5e8d4;strokeColor=#82b366;" vertex="1" parent="1">
          <mxGeometry x="440" y="760" width="200" height="40" as="geometry" />
        </mxCell>
        <mxCell id="V6lHvnkKD9r7ff4-EVEF-21" value="&lt;font color=&quot;#ff0516&quot;&gt;找到了&lt;/font&gt;" style="text;html=1;strokeColor=none;fillColor=none;align=center;verticalAlign=middle;whiteSpace=wrap;rounded=0;fontSize=14;" vertex="1" parent="1">
          <mxGeometry x="390" y="760" width="60" height="20" as="geometry" />
        </mxCell>
        <mxCell id="V6lHvnkKD9r7ff4-EVEF-22" value="&lt;font color=&quot;#ff0516&quot;&gt;查找合适的端点（udc-&amp;gt;driver）&lt;/font&gt;" style="text;html=1;strokeColor=none;fillColor=none;align=center;verticalAlign=middle;whiteSpace=wrap;rounded=0;fontSize=14;" vertex="1" parent="1">
          <mxGeometry x="160" y="800" width="200" height="20" as="geometry" />
        </mxCell>
        <mxCell id="V6lHvnkKD9r7ff4-EVEF-24" value="usb udc" style="swimlane;fontStyle=0;childLayout=stackLayout;horizontal=1;startSize=26;fillColor=#e1d5e7;horizontalStack=0;resizeParent=1;resizeParentMax=0;resizeLast=0;collapsible=1;marginBottom=0;fontSize=14;strokeColor=#9673a6;" vertex="1" parent="1">
          <mxGeometry x="400" y="960" width="140" height="104" as="geometry" />
        </mxCell>
        <mxCell id="V6lHvnkKD9r7ff4-EVEF-26" value="usb_gadget_driver" style="text;strokeColor=#9673a6;fillColor=#e1d5e7;align=left;verticalAlign=top;spacingLeft=4;spacingRight=4;overflow=hidden;rotatable=0;points=[[0,0.5],[1,0.5]];portConstraint=eastwest;" vertex="1" parent="V6lHvnkKD9r7ff4-EVEF-24">
          <mxGeometry y="26" width="140" height="26" as="geometry" />
        </mxCell>
        <mxCell id="V6lHvnkKD9r7ff4-EVEF-27" value="usb_gadget" style="text;strokeColor=#9673a6;fillColor=#e1d5e7;align=left;verticalAlign=top;spacingLeft=4;spacingRight=4;overflow=hidden;rotatable=0;points=[[0,0.5],[1,0.5]];portConstraint=eastwest;" vertex="1" parent="V6lHvnkKD9r7ff4-EVEF-24">
          <mxGeometry y="52" width="140" height="26" as="geometry" />
        </mxCell>
        <mxCell id="V6lHvnkKD9r7ff4-EVEF-28" value="device" style="text;strokeColor=#9673a6;fillColor=#e1d5e7;align=left;verticalAlign=top;spacingLeft=4;spacingRight=4;overflow=hidden;rotatable=0;points=[[0,0.5],[1,0.5]];portConstraint=eastwest;" vertex="1" parent="V6lHvnkKD9r7ff4-EVEF-24">
          <mxGeometry y="78" width="140" height="26" as="geometry" />
        </mxCell>
        <mxCell id="V6lHvnkKD9r7ff4-EVEF-29" value="usb udc" style="swimlane;fontStyle=0;childLayout=stackLayout;horizontal=1;startSize=26;fillColor=#e1d5e7;horizontalStack=0;resizeParent=1;resizeParentMax=0;resizeLast=0;collapsible=1;marginBottom=0;fontSize=14;strokeColor=#9673a6;" vertex="1" parent="1">
          <mxGeometry x="400" y="1120" width="140" height="104" as="geometry" />
        </mxCell>
        <mxCell id="V6lHvnkKD9r7ff4-EVEF-30" value="usb_gadget_driver" style="text;strokeColor=#9673a6;fillColor=#e1d5e7;align=left;verticalAlign=top;spacingLeft=4;spacingRight=4;overflow=hidden;rotatable=0;points=[[0,0.5],[1,0.5]];portConstraint=eastwest;" vertex="1" parent="V6lHvnkKD9r7ff4-EVEF-29">
          <mxGeometry y="26" width="140" height="26" as="geometry" />
        </mxCell>
        <mxCell id="V6lHvnkKD9r7ff4-EVEF-31" value="usb_gadget" style="text;strokeColor=#9673a6;fillColor=#e1d5e7;align=left;verticalAlign=top;spacingLeft=4;spacingRight=4;overflow=hidden;rotatable=0;points=[[0,0.5],[1,0.5]];portConstraint=eastwest;" vertex="1" parent="V6lHvnkKD9r7ff4-EVEF-29">
          <mxGeometry y="52" width="140" height="26" as="geometry" />
        </mxCell>
        <mxCell id="V6lHvnkKD9r7ff4-EVEF-32" value="device" style="text;strokeColor=#9673a6;fillColor=#e1d5e7;align=left;verticalAlign=top;spacingLeft=4;spacingRight=4;overflow=hidden;rotatable=0;points=[[0,0.5],[1,0.5]];portConstraint=eastwest;" vertex="1" parent="V6lHvnkKD9r7ff4-EVEF-29">
          <mxGeometry y="78" width="140" height="26" as="geometry" />
        </mxCell>
        <mxCell id="V6lHvnkKD9r7ff4-EVEF-33" value="..." style="text;html=1;strokeColor=none;fillColor=none;align=center;verticalAlign=middle;whiteSpace=wrap;rounded=0;fontSize=14;" vertex="1" parent="1">
          <mxGeometry x="450" y="1080" width="40" height="20" as="geometry" />
        </mxCell>
        <mxCell id="V6lHvnkKD9r7ff4-EVEF-36" value="&lt;font color=&quot;#ff0516&quot;&gt;udc 以链表的形式存储&lt;/font&gt;" style="text;html=1;strokeColor=none;fillColor=none;align=center;verticalAlign=middle;whiteSpace=wrap;rounded=0;fontSize=14;" vertex="1" parent="1">
          <mxGeometry x="370" y="930" width="200" height="20" as="geometry" />
        </mxCell>
      </root>
    </mxGraphModel>
  </diagram>
</mxfile>
